<svg version="1.1" viewBox="0.0 0.0 669.0 413.0" fill="none" stroke="none" stroke-linecap="square" stroke-miterlimit="10" width="669" height="413" xmlns:xlink="http://www.w3.org/1999/xlink" xmlns="http://www.w3.org/2000/svg"><path fill="#ffffff" d="M0 0L669.0 0L669.0 413.0L0 413.0L0 0Z" fill-rule="nonzero"/><path stroke="#cccccc" stroke-width="1.0" stroke-linecap="butt" d="M189.5 93.5L189.5 340.5" fill-rule="nonzero"/><path stroke="#cccccc" stroke-width="1.0" stroke-linecap="butt" d="M337.5 93.5L337.5 340.5" fill-rule="nonzero"/><path stroke="#cccccc" stroke-width="1.0" stroke-linecap="butt" d="M486.5 93.5L486.5 340.5" fill-rule="nonzero"/><path stroke="#cccccc" stroke-width="1.0" stroke-linecap="butt" d="M634.5 93.5L634.5 340.5" fill-rule="nonzero"/><path stroke="#333333" stroke-width="1.0" stroke-linecap="butt" d="M79.5 340.5L648.5 340.5" fill-rule="nonzero"/><path stroke="#cccccc" stroke-width="1.0" stroke-linecap="butt" d="M79.5 257.5L648.5 257.5" fill-rule="nonzero"/><path stroke="#cccccc" stroke-width="1.0" stroke-linecap="butt" d="M79.5 175.5L648.5 175.5" fill-rule="nonzero"/><path stroke="#cccccc" stroke-width="1.0" stroke-linecap="butt" d="M79.5 93.5L648.5 93.5" fill-rule="nonzero"/><clipPath id="id_0"><path d="M79.65 93.183334L648.35 93.183334L648.35 340.35L79.65 340.35L79.65 93.183334Z" clip-rule="nonzero"/></clipPath><path stroke="#4285f4" stroke-width="2.0" stroke-linecap="butt" clip-path="url(#id_0)" d="M79.65 134.37778L193.39 138.49722L345.04333 163.21388L648.35 192.05" fill-rule="nonzero"/><path stroke="#ea4335" stroke-width="2.0" stroke-linecap="butt" clip-path="url(#id_0)" d="M79.65 117.9L193.39 134.37778L345.04333 134.37778L648.35 154.975" fill-rule="nonzero"/><path stroke="#fbbc04" stroke-width="2.0" stroke-linecap="butt" clip-path="url(#id_0)" d="M79.65 126.138885L193.39 142.61667L345.04333 117.9L648.35 150.85556" fill-rule="nonzero"/><path fill="#000000" fill-opacity="0.0" clip-path="url(#id_0)" d="M82.65 134.37778C82.65 136.03464 81.306854 137.37778 79.65 137.37778C77.99315 137.37778 76.65 136.03464 76.65 134.37778C76.65 132.72092 77.99315 131.37778 79.65 131.37778C81.306854 131.37778 82.65 132.72092 82.65 134.37778Z" fill-rule="nonzero"/><path fill="#000000" fill-opacity="0.0" clip-path="url(#id_0)" d="M196.39 138.49722C196.39 140.15408 195.04686 141.49722 193.39 141.49722C191.73314 141.49722 190.39 140.15408 190.39 138.49722C190.39 136.84036 191.73314 135.49722 193.39 135.49722C195.04686 135.49722 196.39 136.84036 196.39 138.49722Z" fill-rule="nonzero"/><path fill="#000000" fill-opacity="0.0" clip-path="url(#id_0)" d="M348.04333 163.21388C348.04333 164.87074 346.7002 166.21388 345.04333 166.21388C343.38647 166.21388 342.04333 164.87074 342.04333 163.21388C342.04333 161.55704 343.38647 160.21388 345.04333 160.21388C346.7002 160.21388 348.04333 161.55704 348.04333 163.21388Z" fill-rule="nonzero"/><path fill="#000000" fill-opacity="0.0" clip-path="url(#id_0)" d="M651.35 192.05C651.35 193.70685 650.00684 195.05 648.35 195.05C646.6931 195.05 645.35 193.70685 645.35 192.05C645.35 190.39314 646.6931 189.05 648.35 189.05C650.00684 189.05 651.35 190.39314 651.35 192.05Z" fill-rule="nonzero"/><path fill="#000000" fill-opacity="0.0" clip-path="url(#id_0)" d="M82.65 117.9C82.65 119.556854 81.306854 120.9 79.65 120.9C77.99315 120.9 76.65 119.556854 76.65 117.9C76.65 116.24315 77.99315 114.9 79.65 114.9C81.306854 114.9 82.65 116.24315 82.65 117.9Z" fill-rule="nonzero"/><path fill="#000000" fill-opacity="0.0" clip-path="url(#id_0)" d="M196.39 134.37778C196.39 136.03464 195.04686 137.37778 193.39 137.37778C191.73314 137.37778 190.39 136.03464 190.39 134.37778C190.39 132.72092 191.73314 131.37778 193.39 131.37778C195.04686 131.37778 196.39 132.72092 196.39 134.37778Z" fill-rule="nonzero"/><path fill="#000000" fill-opacity="0.0" clip-path="url(#id_0)" d="M348.04333 134.37778C348.04333 136.03464 346.7002 137.37778 345.04333 137.37778C343.38647 137.37778 342.04333 136.03464 342.04333 134.37778C342.04333 132.72092 343.38647 131.37778 345.04333 131.37778C346.7002 131.37778 348.04333 132.72092 348.04333 134.37778Z" fill-rule="nonzero"/><path fill="#000000" fill-opacity="0.0" clip-path="url(#id_0)" d="M651.35 154.975C651.35 156.63185 650.00684 157.975 648.35 157.975C646.6931 157.975 645.35 156.63185 645.35 154.975C645.35 153.31815 646.6931 151.975 648.35 151.975C650.00684 151.975 651.35 153.31815 651.35 154.975Z" fill-rule="nonzero"/><path fill="#000000" fill-opacity="0.0" clip-path="url(#id_0)" d="M82.65 126.138885C82.65 127.795746 81.306854 129.13889 79.65 129.13889C77.99315 129.13889 76.65 127.795746 76.65 126.138885C76.65 124.48203 77.99315 123.138885 79.65 123.138885C81.306854 123.138885 82.65 124.48203 82.65 126.138885Z" fill-rule="nonzero"/><path fill="#000000" fill-opacity="0.0" clip-path="url(#id_0)" d="M196.39 142.61667C196.39 144.27351 195.04686 145.61667 193.39 145.61667C191.73314 145.61667 190.39 144.27351 190.39 142.61667C190.39 140.95981 191.73314 139.61667 193.39 139.61667C195.04686 139.61667 196.39 140.95981 196.39 142.61667Z" fill-rule="nonzero"/><path fill="#000000" fill-opacity="0.0" clip-path="url(#id_0)" d="M348.04333 117.9C348.04333 119.556854 346.7002 120.9 345.04333 120.9C343.38647 120.9 342.04333 119.556854 342.04333 117.9C342.04333 116.24315 343.38647 114.9 345.04333 114.9C346.7002 114.9 348.04333 116.24315 348.04333 117.9Z" fill-rule="nonzero"/><path fill="#000000" fill-opacity="0.0" clip-path="url(#id_0)" d="M651.35 150.85556C651.35 152.5124 650.00684 153.85556 648.35 153.85556C646.6931 153.85556 645.35 152.5124 645.35 150.85556C645.35 149.1987 646.6931 147.85556 648.35 147.85556C650.00684 147.85556 651.35 149.1987 651.35 150.85556Z" fill-rule="nonzero"/><path fill="#000000" d="M320.42188 389.35L320.42188 380.75626L321.57812 380.75626L326.09375 387.50626L326.09375 380.75626L327.1875 380.75626L327.1875 389.35L326.01562 389.35L321.5 382.6L321.5 389.35L320.42188 389.35ZM333.375 389.35L333.375 388.42813Q332.64062 389.49063 331.39062 389.49063Q330.84375 389.49063 330.35938 389.2875Q329.89062 389.06876 329.65625 388.75626Q329.42188 388.42813 329.32812 387.95938Q329.26562 387.6625 329.26562 386.975L329.26562 383.13126L330.32812 383.13126L330.32812 386.58438Q330.32812 387.39688 330.39062 387.69376Q330.48438 388.1 330.79688 388.35Q331.125 388.58438 331.60938 388.58438Q332.07812 388.58438 332.48438 388.35Q332.90625 388.1 333.07812 387.67813Q333.26562 387.25626 333.26562 386.45938L333.26562 383.13126L334.3125 383.13126L334.3125 389.35L333.375 389.35ZM336.29688 389.35L336.29688 383.13126L337.23438 383.13126L337.23438 384.00626Q337.53125 383.5375 338.01562 383.27188Q338.5 382.99063 339.125 382.99063Q339.8125 382.99063 340.25 383.27188Q340.70312 383.55313 340.875 384.06876Q341.625 382.99063 342.79688 382.99063Q343.73438 382.99063 344.21875 383.50626Q344.71875 384.00626 344.71875 385.08438L344.71875 389.35L343.67188 389.35L343.67188 385.42813Q343.67188 384.80313 343.5625 384.52188Q343.46875 384.24063 343.20312 384.06876Q342.9375 383.89688 342.5625 383.89688Q341.90625 383.89688 341.46875 384.33438Q341.04688 384.77188 341.04688 385.74063L341.04688 389.35L339.98438 389.35L339.98438 385.30313Q339.98438 384.6 339.71875 384.25626Q339.46875 383.89688 338.89062 383.89688Q338.4375 383.89688 338.0625 384.13126Q337.6875 384.36563 337.51562 384.81876Q337.34375 385.27188 337.34375 386.11563L337.34375 389.35L336.29688 389.35ZM347.26562 389.35L346.28125 389.35L346.28125 380.75626L347.34375 380.75626L347.34375 383.81876Q348.01562 382.99063 349.04688 382.99063Q349.625 382.99063 350.125 383.225Q350.64062 383.44376 350.96875 383.86563Q351.3125 384.2875 351.5 384.88126Q351.6875 385.475 351.6875 386.14688Q351.6875 387.74063 350.89062 388.61563Q350.09375 389.49063 349.0 389.49063Q347.89062 389.49063 347.26562 388.56876L347.26562 389.35ZM347.25 386.19376Q347.25 387.30313 347.5625 387.80313Q348.0625 388.61563 348.90625 388.61563Q349.59375 388.61563 350.09375 388.02188Q350.60938 387.42813 350.60938 386.225Q350.60938 385.00626 350.125 384.42813Q349.64062 383.85 348.95312 383.85Q348.26562 383.85 347.75 384.45938Q347.25 385.05313 347.25 386.19376ZM357.54688 387.35L358.64062 387.475Q358.39062 388.42813 357.6875 388.95938Q356.98438 389.49063 355.90625 389.49063Q354.54688 389.49063 353.73438 388.64688Q352.9375 387.80313 352.9375 386.2875Q352.9375 384.725 353.75 383.86563Q354.5625 382.99063 355.84375 382.99063Q357.09375 382.99063 357.875 383.83438Q358.67188 384.67813 358.67188 386.225Q358.67188 386.31876 358.67188 386.50626L354.03125 386.50626Q354.09375 387.5375 354.60938 388.08438Q355.125 388.61563 355.90625 388.61563Q356.48438 388.61563 356.89062 388.31876Q357.3125 388.00626 357.54688 387.35ZM354.09375 385.64688L357.5625 385.64688Q357.5 384.85 357.17188 384.45938Q356.65625 383.85 355.85938 383.85Q355.125 383.85 354.625 384.33438Q354.14062 384.81876 354.09375 385.64688ZM360.28125 389.35L360.28125 383.13126L361.23438 383.13126L361.23438 384.06876Q361.59375 383.4125 361.89062 383.20938Q362.20312 382.99063 362.57812 382.99063Q363.10938 382.99063 363.65625 383.31876L363.29688 384.30313Q362.90625 384.06876 362.53125 384.06876Q362.17188 384.06876 361.89062 384.2875Q361.625 384.49063 361.51562 384.86563Q361.32812 385.42813 361.32812 386.08438L361.32812 389.35L360.28125 389.35ZM366.90625 386.24063Q366.90625 384.50626 367.85938 383.67813Q368.65625 382.99063 369.8125 382.99063Q371.09375 382.99063 371.90625 383.83438Q372.73438 384.6625 372.73438 386.14688Q372.73438 387.35 372.375 388.0375Q372.01562 388.725 371.3125 389.11563Q370.625 389.49063 369.8125 389.49063Q368.51562 389.49063 367.70312 388.6625Q366.90625 387.81876 366.90625 386.24063ZM367.98438 386.24063Q367.98438 387.42813 368.5 388.02188Q369.03125 388.61563 369.8125 388.61563Q370.60938 388.61563 371.125 388.02188Q371.64062 387.42813 371.64062 386.20938Q371.64062 385.05313 371.10938 384.45938Q370.59375 383.86563 369.8125 383.86563Q369.03125 383.86563 368.5 384.45938Q367.98438 385.0375 367.98438 386.24063ZM374.54688 389.35L374.54688 383.94376L373.60938 383.94376L373.60938 383.13126L374.54688 383.13126L374.54688 382.45938Q374.54688 381.83438 374.65625 381.5375Q374.8125 381.11563 375.1875 380.86563Q375.57812 380.61563 376.26562 380.61563Q376.71875 380.61563 377.25 380.725L377.09375 381.63126Q376.76562 381.58438 376.46875 381.58438Q375.98438 381.58438 375.78125 381.7875Q375.59375 381.99063 375.59375 382.55313L375.59375 383.13126L376.8125 383.13126L376.8125 383.94376L375.59375 383.94376L375.59375 389.35L374.54688 389.35ZM380.26562 389.35L380.26562 380.75626L381.32812 380.75626L381.32812 389.35L380.26562 389.35ZM383.29688 381.975L383.29688 380.75626L384.35938 380.75626L384.35938 381.975L383.29688 381.975ZM383.29688 389.35L383.29688 383.13126L384.35938 383.13126L384.35938 389.35L383.29688 389.35ZM386.09375 389.86563L387.125 390.02188Q387.1875 390.49063 387.48438 390.70938Q387.875 391.00626 388.54688 391.00626Q389.28125 391.00626 389.67188 390.70938Q390.07812 390.4125 390.21875 389.89688Q390.3125 389.56876 390.29688 388.5375Q389.60938 389.35 388.57812 389.35Q387.29688 389.35 386.59375 388.42813Q385.89062 387.49063 385.89062 386.20938Q385.89062 385.31876 386.20312 384.56876Q386.53125 383.80313 387.14062 383.39688Q387.75 382.99063 388.57812 382.99063Q389.6875 382.99063 390.40625 383.88126L390.40625 383.13126L391.375 383.13126L391.375 388.50626Q391.375 389.95938 391.07812 390.56876Q390.78125 391.17813 390.14062 391.52188Q389.5 391.88126 388.5625 391.88126Q387.45312 391.88126 386.76562 391.38126Q386.07812 390.88126 386.09375 389.86563ZM386.96875 386.13126Q386.96875 387.35 387.45312 387.9125Q387.9375 388.475 388.67188 388.475Q389.40625 388.475 389.89062 387.9125Q390.39062 387.35 390.39062 386.1625Q390.39062 385.02188 389.875 384.44376Q389.375 383.86563 388.65625 383.86563Q387.95312 383.86563 387.45312 384.44376Q386.96875 385.00626 386.96875 386.13126ZM393.29688 389.35L393.29688 380.75626L394.34375 380.75626L394.34375 383.83438Q395.07812 382.99063 396.20312 382.99063Q396.90625 382.99063 397.40625 383.27188Q397.92188 383.5375 398.14062 384.02188Q398.35938 384.49063 398.35938 385.4125L398.35938 389.35L397.3125 389.35L397.3125 385.4125Q397.3125 384.61563 396.96875 384.25626Q396.625 383.89688 396.0 383.89688Q395.53125 383.89688 395.10938 384.14688Q394.70312 384.38126 394.51562 384.80313Q394.34375 385.20938 394.34375 385.94376L394.34375 389.35L393.29688 389.35ZM402.59375 388.4125L402.75 389.33438Q402.29688 389.42813 401.95312 389.42813Q401.375 389.42813 401.0625 389.25626Q400.75 389.06876 400.60938 388.77188Q400.48438 388.475 400.48438 387.52188L400.48438 383.94376L399.71875 383.94376L399.71875 383.13126L400.48438 383.13126L400.48438 381.58438L401.53125 380.95938L401.53125 383.13126L402.59375 383.13126L402.59375 383.94376L401.53125 383.94376L401.53125 387.58438Q401.53125 388.0375 401.57812 388.1625Q401.64062 388.2875 401.76562 388.36563Q401.89062 388.44376 402.125 388.44376Q402.3125 388.44376 402.59375 388.4125ZM402.875 387.49063L403.90625 387.33438Q404.0 387.95938 404.39062 388.2875Q404.79688 388.61563 405.53125 388.61563Q406.25 388.61563 406.59375 388.33438Q406.95312 388.0375 406.95312 387.63126Q406.95312 387.27188 406.64062 387.06876Q406.42188 386.92813 405.5625 386.70938Q404.40625 386.4125 403.95312 386.20938Q403.51562 385.99063 403.28125 385.61563Q403.04688 385.24063 403.04688 384.77188Q403.04688 384.36563 403.23438 384.00626Q403.42188 383.64688 403.75 383.4125Q404.0 383.24063 404.42188 383.11563Q404.84375 382.99063 405.34375 382.99063Q406.0625 382.99063 406.60938 383.20938Q407.17188 383.4125 407.4375 383.77188Q407.70312 384.13126 407.79688 384.725L406.76562 384.86563Q406.70312 384.39688 406.35938 384.13126Q406.03125 383.85 405.40625 383.85Q404.6875 383.85 404.375 384.1Q404.0625 384.33438 404.0625 384.6625Q404.0625 384.86563 404.1875 385.02188Q404.32812 385.19376 404.59375 385.30313Q404.75 385.36563 405.53125 385.56876Q406.65625 385.88126 407.09375 386.06876Q407.53125 386.25626 407.78125 386.61563Q408.03125 386.975 408.03125 387.52188Q408.03125 388.05313 407.71875 388.52188Q407.42188 388.975 406.84375 389.24063Q406.26562 389.49063 405.53125 389.49063Q404.3125 389.49063 403.67188 388.99063Q403.04688 388.475 402.875 387.49063Z" fill-rule="nonzero"/><path fill="#000000" d="M31.650005 233.87604L23.056255 233.87604L23.056255 227.98541L24.50938 227.98541L24.50938 232.14166L26.54063 232.14166L26.54063 228.56354L27.993755 228.56354L27.993755 232.14166L31.650005 232.14166L31.650005 233.87604ZM31.650005 226.89166L23.056255 226.89166L23.056255 224.11041Q23.056255 222.53229 23.181255 222.04791Q23.38438 221.31354 24.04063 220.81354Q24.681255 220.31354 25.69688 220.31354Q26.493755 220.31354 27.04063 220.61041Q27.57188 220.89166 27.88438 221.32916Q28.181255 221.76666 28.29063 222.23541Q28.41563 222.84479 28.41563 224.03229L28.41563 225.15729L31.650005 225.15729L31.650005 226.89166ZM24.50938 225.15729L26.94688 225.15729L26.94688 224.20416Q26.94688 223.18854 26.82188 222.84479Q26.681255 222.48541 26.400005 222.29791Q26.10313 222.09479 25.72813 222.09479Q25.25938 222.09479 24.962505 222.37604Q24.650005 222.65729 24.57188 223.07916Q24.50938 223.37604 24.50938 224.31354L24.50938 225.15729ZM28.85313 219.32916L28.69688 217.64166Q29.54063 217.48541 29.94688 217.03229Q30.337505 216.56354 30.337505 215.76666Q30.337505 214.93854 29.993755 214.51666Q29.63438 214.07916 29.150005 214.07916Q28.85313 214.07916 28.63438 214.26666Q28.41563 214.43854 28.25938 214.89166Q28.150005 215.18854 27.88438 216.26666Q27.54063 217.67291 27.04063 218.23541Q26.32188 219.01666 25.306255 219.01666Q24.650005 219.01666 24.087505 218.65729Q23.50938 218.28229 23.212505 217.57916Q22.91563 216.87604 22.91563 215.89166Q22.91563 214.26666 23.63438 213.45416Q24.337505 212.64166 25.50938 212.59479L25.587505 214.32916Q24.931255 214.43854 24.650005 214.81354Q24.35313 215.17291 24.35313 215.90729Q24.35313 216.65729 24.66563 217.09479Q24.85313 217.36041 25.19688 217.36041Q25.493755 217.36041 25.712505 217.11041Q25.993755 216.78229 26.29063 215.51666Q26.587505 214.25104 26.91563 213.64166Q27.22813 213.03229 27.79063 212.68854Q28.337505 212.34479 29.150005 212.34479Q29.88438 212.34479 30.54063 212.76666Q31.181255 213.17291 31.493755 213.92291Q31.806255 214.67291 31.806255 215.78229Q31.806255 217.42291 31.056255 218.29791Q30.29063 219.15729 28.85313 219.32916Z" fill-rule="nonzero"/><path fill="#000000" d="M67.15 340.11563Q67.15 338.58438 67.4625 337.6625Q67.775 336.725 68.38438 336.225Q69.00938 335.725 69.94688 335.725Q70.63438 335.725 71.15 336.00626Q71.68125 336.2875 72.025 336.81876Q72.36875 337.33438 72.55625 338.08438Q72.74375 338.83438 72.74375 340.11563Q72.74375 341.63126 72.43125 342.55313Q72.13438 343.475 71.50938 343.99063Q70.9 344.49063 69.94688 344.49063Q68.7125 344.49063 67.99375 343.6Q67.15 342.5375 67.15 340.11563ZM68.22813 340.11563Q68.22813 342.225 68.72813 342.92813Q69.22813 343.63126 69.94688 343.63126Q70.68125 343.63126 71.16563 342.92813Q71.66563 342.225 71.66563 340.11563Q71.66563 337.99063 71.16563 337.30313Q70.68125 336.6 69.93125 336.6Q69.2125 336.6 68.775 337.20938Q68.22813 337.99063 68.22813 340.11563Z" fill-rule="nonzero"/><path fill="#000000" d="M64.11875 261.96112L63.071877 261.96112L63.071877 255.24237Q62.68125 255.60175 62.05625 255.97675Q61.446877 256.33612 60.9625 256.508L60.9625 255.49237Q61.8375 255.0705 62.49375 254.49237Q63.165627 253.89862 63.446877 253.33612L64.11875 253.33612L64.11875 261.96112ZM67.15 257.72675Q67.15 256.1955 67.4625 255.27362Q67.775 254.33612 68.38438 253.83612Q69.00938 253.33612 69.94688 253.33612Q70.63438 253.33612 71.15 253.61737Q71.68125 253.89862 72.025 254.42987Q72.36875 254.9455 72.55625 255.6955Q72.74375 256.4455 72.74375 257.72675Q72.74375 259.24237 72.43125 260.16425Q72.13438 261.08612 71.50938 261.60175Q70.9 262.10175 69.94688 262.10175Q68.7125 262.10175 67.99375 261.21112Q67.15 260.14862 67.15 257.72675ZM68.22813 257.72675Q68.22813 259.83612 68.72813 260.53925Q69.22813 261.24237 69.94688 261.24237Q70.68125 261.24237 71.16563 260.53925Q71.66563 259.83612 71.66563 257.72675Q71.66563 255.60175 71.16563 254.91425Q70.68125 254.21112 69.93125 254.21112Q69.2125 254.21112 68.775 254.8205Q68.22813 255.60175 68.22813 257.72675Z" fill-rule="nonzero"/><path fill="#000000" d="M65.69688 178.5566L65.69688 179.57222L60.009377 179.57222Q60.009377 179.19722 60.134377 178.83784Q60.353127 178.25972 60.821877 177.69722Q61.30625 177.13472 62.2125 176.40034Q63.61875 175.2441 64.10313 174.57222Q64.60313 173.90034 64.60313 173.3066Q64.60313 172.6816 64.15 172.25972Q63.696877 171.82222 62.978127 171.82222Q62.2125 171.82222 61.759377 172.27534Q61.30625 172.72847 61.290627 173.54097L60.2125 173.4316Q60.321877 172.21284 61.040627 171.58784Q61.775 170.94722 63.009377 170.94722Q64.24375 170.94722 64.9625 171.63472Q65.68125 172.32222 65.68125 173.33784Q65.68125 173.85347 65.4625 174.35347Q65.25938 174.83784 64.75938 175.40034Q64.275 175.94722 63.15 176.90034Q62.196877 177.69722 61.915627 177.9941Q61.65 178.27534 61.478127 178.5566L65.69688 178.5566ZM67.15 175.33784Q67.15 173.8066 67.4625 172.88472Q67.775 171.94722 68.38438 171.44722Q69.00938 170.94722 69.94688 170.94722Q70.63438 170.94722 71.15 171.22847Q71.68125 171.50972 72.025 172.04097Q72.36875 172.5566 72.55625 173.3066Q72.74375 174.0566 72.74375 175.33784Q72.74375 176.85347 72.43125 177.77534Q72.13438 178.69722 71.50938 179.21284Q70.9 179.71284 69.94688 179.71284Q68.7125 179.71284 67.99375 178.82222Q67.15 177.75972 67.15 175.33784ZM68.22813 175.33784Q68.22813 177.44722 68.72813 178.15034Q69.22813 178.85347 69.94688 178.85347Q70.68125 178.85347 71.16563 178.15034Q71.66563 177.44722 71.66563 175.33784Q71.66563 173.21284 71.16563 172.52534Q70.68125 171.82222 69.93125 171.82222Q69.2125 171.82222 68.775 172.4316Q68.22813 173.21284 68.22813 175.33784Z" fill-rule="nonzero"/><path fill="#000000" d="M60.15 94.91771L61.2125 94.777084Q61.384377 95.66771 61.821877 96.07396Q62.259377 96.464584 62.884377 96.464584Q63.634377 96.464584 64.15 95.94896Q64.66563 95.433334 64.66563 94.66771Q64.66563 93.94896 64.18125 93.48021Q63.7125 92.995834 62.978127 92.995834Q62.68125 92.995834 62.228127 93.120834L62.353127 92.183334Q62.4625 92.19896 62.525 92.19896Q63.196877 92.19896 63.728127 91.85521Q64.275 91.495834 64.275 90.76146Q64.275 90.183334 63.884377 89.808334Q63.49375 89.41771 62.86875 89.41771Q62.259377 89.41771 61.8375 89.808334Q61.43125 90.19896 61.321877 90.964584L60.259377 90.777084Q60.446877 89.73021 61.134377 89.152084Q61.821877 88.558334 62.8375 88.558334Q63.540627 88.558334 64.13438 88.870834Q64.72813 89.16771 65.04063 89.683334Q65.35313 90.19896 65.35313 90.79271Q65.35313 91.339584 65.05625 91.808334Q64.75938 92.26146 64.18125 92.527084Q64.93125 92.69896 65.35313 93.26146Q65.775 93.808334 65.775 94.652084Q65.775 95.777084 64.94688 96.558334Q64.13438 97.339584 62.884377 97.339584Q61.759377 97.339584 61.009377 96.66771Q60.259377 95.98021 60.15 94.91771ZM67.15 92.94896Q67.15 91.41771 67.4625 90.495834Q67.775 89.558334 68.38438 89.058334Q69.00938 88.558334 69.94688 88.558334Q70.63438 88.558334 71.15 88.839584Q71.68125 89.120834 72.025 89.652084Q72.36875 90.16771 72.55625 90.91771Q72.74375 91.66771 72.74375 92.94896Q72.74375 94.464584 72.43125 95.38646Q72.13438 96.308334 71.50938 96.82396Q70.9 97.32396 69.94688 97.32396Q68.7125 97.32396 67.99375 96.433334Q67.15 95.370834 67.15 92.94896ZM68.22813 92.94896Q68.22813 95.058334 68.72813 95.76146Q69.22813 96.464584 69.94688 96.464584Q70.68125 96.464584 71.16563 95.76146Q71.66563 95.058334 71.66563 92.94896Q71.66563 90.82396 71.16563 90.13646Q70.68125 89.433334 69.93125 89.433334Q69.2125 89.433334 68.775 90.04271Q68.22813 90.82396 68.22813 92.94896Z" fill-rule="nonzero"/><path fill="#000000" d="M179.83563 355.1L180.945 355.00626Q181.07 355.81876 181.5075 356.225Q181.96063 356.63126 182.60126 356.63126Q183.35126 356.63126 183.8825 356.05313Q184.41376 355.475 184.41376 354.5375Q184.41376 353.63126 183.89813 353.11563Q183.39813 352.58438 182.57 352.58438Q182.07 352.58438 181.64813 352.81876Q181.24188 353.05313 181.0075 353.4125L180.02313 353.2875L180.85126 348.88126L185.1325 348.88126L185.1325 349.88126L181.695 349.88126L181.24188 352.19376Q182.0075 351.64688 182.85126 351.64688Q183.97626 351.64688 184.74188 352.42813Q185.52313 353.20938 185.52313 354.44376Q185.52313 355.6 184.85126 356.45938Q184.02313 357.49063 182.60126 357.49063Q181.42938 357.49063 180.67938 356.83438Q179.945 356.17813 179.83563 355.1ZM186.83563 353.11563Q186.83563 351.58438 187.14813 350.6625Q187.46063 349.725 188.07 349.225Q188.695 348.725 189.6325 348.725Q190.32 348.725 190.83563 349.00626Q191.36688 349.2875 191.71063 349.81876Q192.05438 350.33438 192.24188 351.08438Q192.42938 351.83438 192.42938 353.11563Q192.42938 354.63126 192.11688 355.55313Q191.82 356.475 191.195 356.99063Q190.58563 357.49063 189.6325 357.49063Q188.39813 357.49063 187.67938 356.6Q186.83563 355.5375 186.83563 353.11563ZM187.91376 353.11563Q187.91376 355.225 188.41376 355.92813Q188.91376 356.63126 189.6325 356.63126Q190.36688 356.63126 190.85126 355.92813Q191.35126 355.225 191.35126 353.11563Q191.35126 350.99063 190.85126 350.30313Q190.36688 349.6 189.61688 349.6Q188.89813 349.6 188.46063 350.20938Q187.91376 350.99063 187.91376 353.11563ZM193.83563 353.11563Q193.83563 351.58438 194.14813 350.6625Q194.46063 349.725 195.07 349.225Q195.695 348.725 196.6325 348.725Q197.32 348.725 197.83563 349.00626Q198.36688 349.2875 198.71063 349.81876Q199.05438 350.33438 199.24188 351.08438Q199.42938 351.83438 199.42938 353.11563Q199.42938 354.63126 199.11688 355.55313Q198.82 356.475 198.195 356.99063Q197.58563 357.49063 196.6325 357.49063Q195.39813 357.49063 194.67938 356.6Q193.83563 355.5375 193.83563 353.11563ZM194.91376 353.11563Q194.91376 355.225 195.41376 355.92813Q195.91376 356.63126 196.6325 356.63126Q197.36688 356.63126 197.85126 355.92813Q198.35126 355.225 198.35126 353.11563Q198.35126 350.99063 197.85126 350.30313Q197.36688 349.6 196.61688 349.6Q195.89813 349.6 195.46063 350.20938Q194.91376 350.99063 194.91376 353.11563Z" fill-rule="nonzero"/><path fill="#000000" d="M328.40332 357.35L327.35645 357.35L327.35645 350.63126Q326.96582 350.99063 326.34082 351.36563Q325.73145 351.725 325.24707 351.89688L325.24707 350.88126Q326.12207 350.45938 326.77832 349.88126Q327.4502 349.2875 327.73145 348.725L328.40332 348.725L328.40332 357.35ZM331.43457 353.11563Q331.43457 351.58438 331.74707 350.6625Q332.05957 349.725 332.66895 349.225Q333.29395 348.725 334.23145 348.725Q334.91895 348.725 335.43457 349.00626Q335.96582 349.2875 336.30957 349.81876Q336.65332 350.33438 336.84082 351.08438Q337.02832 351.83438 337.02832 353.11563Q337.02832 354.63126 336.71582 355.55313Q336.41895 356.475 335.79395 356.99063Q335.18457 357.49063 334.23145 357.49063Q332.99707 357.49063 332.27832 356.6Q331.43457 355.5375 331.43457 353.11563ZM332.5127 353.11563Q332.5127 355.225 333.0127 355.92813Q333.5127 356.63126 334.23145 356.63126Q334.96582 356.63126 335.4502 355.92813Q335.9502 355.225 335.9502 353.11563Q335.9502 350.99063 335.4502 350.30313Q334.96582 349.6 334.21582 349.6Q333.49707 349.6 333.05957 350.20938Q332.5127 350.99063 332.5127 353.11563ZM338.43457 353.11563Q338.43457 351.58438 338.74707 350.6625Q339.05957 349.725 339.66895 349.225Q340.29395 348.725 341.23145 348.725Q341.91895 348.725 342.43457 349.00626Q342.96582 349.2875 343.30957 349.81876Q343.65332 350.33438 343.84082 351.08438Q344.02832 351.83438 344.02832 353.11563Q344.02832 354.63126 343.71582 355.55313Q343.41895 356.475 342.79395 356.99063Q342.18457 357.49063 341.23145 357.49063Q339.99707 357.49063 339.27832 356.6Q338.43457 355.5375 338.43457 353.11563ZM339.5127 353.11563Q339.5127 355.225 340.0127 355.92813Q340.5127 356.63126 341.23145 356.63126Q341.96582 356.63126 342.4502 355.92813Q342.9502 355.225 342.9502 353.11563Q342.9502 350.99063 342.4502 350.30313Q341.96582 349.6 341.21582 349.6Q340.49707 349.6 340.05957 350.20938Q339.5127 350.99063 339.5127 353.11563ZM345.43457 353.11563Q345.43457 351.58438 345.74707 350.6625Q346.05957 349.725 346.66895 349.225Q347.29395 348.725 348.23145 348.725Q348.91895 348.725 349.43457 349.00626Q349.96582 349.2875 350.30957 349.81876Q350.65332 350.33438 350.84082 351.08438Q351.02832 351.83438 351.02832 353.11563Q351.02832 354.63126 350.71582 355.55313Q350.41895 356.475 349.79395 356.99063Q349.18457 357.49063 348.23145 357.49063Q346.99707 357.49063 346.27832 356.6Q345.43457 355.5375 345.43457 353.11563ZM346.5127 353.11563Q346.5127 355.225 347.0127 355.92813Q347.5127 356.63126 348.23145 356.63126Q348.96582 356.63126 349.4502 355.92813Q349.9502 355.225 349.9502 353.11563Q349.9502 350.99063 349.4502 350.30313Q348.96582 349.6 348.21582 349.6Q347.49707 349.6 347.05957 350.20938Q346.5127 350.99063 346.5127 353.11563Z" fill-rule="nonzero"/><path fill="#000000" d="M476.5023 357.35L475.4554 357.35L475.4554 350.63126Q475.0648 350.99063 474.4398 351.36563Q473.8304 351.725 473.34604 351.89688L473.34604 350.88126Q474.22104 350.45938 474.8773 349.88126Q475.54916 349.2875 475.8304 348.725L476.5023 348.725L476.5023 357.35ZM479.53354 355.1L480.6429 355.00626Q480.7679 355.81876 481.2054 356.225Q481.65854 356.63126 482.29916 356.63126Q483.04916 356.63126 483.5804 356.05313Q484.11166 355.475 484.11166 354.5375Q484.11166 353.63126 483.59604 353.11563Q483.09604 352.58438 482.2679 352.58438Q481.7679 352.58438 481.34604 352.81876Q480.9398 353.05313 480.7054 353.4125L479.72104 353.2875L480.54916 348.88126L484.8304 348.88126L484.8304 349.88126L481.3929 349.88126L480.9398 352.19376Q481.7054 351.64688 482.54916 351.64688Q483.67416 351.64688 484.4398 352.42813Q485.22104 353.20938 485.22104 354.44376Q485.22104 355.6 484.54916 356.45938Q483.72104 357.49063 482.29916 357.49063Q481.1273 357.49063 480.3773 356.83438Q479.6429 356.17813 479.53354 355.1ZM486.53354 353.11563Q486.53354 351.58438 486.84604 350.6625Q487.15854 349.725 487.7679 349.225Q488.3929 348.725 489.3304 348.725Q490.0179 348.725 490.53354 349.00626Q491.0648 349.2875 491.40854 349.81876Q491.7523 350.33438 491.9398 351.08438Q492.1273 351.83438 492.1273 353.11563Q492.1273 354.63126 491.8148 355.55313Q491.5179 356.475 490.8929 356.99063Q490.28354 357.49063 489.3304 357.49063Q488.09604 357.49063 487.3773 356.6Q486.53354 355.5375 486.53354 353.11563ZM487.61166 353.11563Q487.61166 355.225 488.11166 355.92813Q488.61166 356.63126 489.3304 356.63126Q490.0648 356.63126 490.54916 355.92813Q491.04916 355.225 491.04916 353.11563Q491.04916 350.99063 490.54916 350.30313Q490.0648 349.6 489.3148 349.6Q488.59604 349.6 488.15854 350.20938Q487.61166 350.99063 487.61166 353.11563ZM493.53354 353.11563Q493.53354 351.58438 493.84604 350.6625Q494.15854 349.725 494.7679 349.225Q495.3929 348.725 496.3304 348.725Q497.0179 348.725 497.53354 349.00626Q498.0648 349.2875 498.40854 349.81876Q498.7523 350.33438 498.9398 351.08438Q499.1273 351.83438 499.1273 353.11563Q499.1273 354.63126 498.8148 355.55313Q498.5179 356.475 497.8929 356.99063Q497.28354 357.49063 496.3304 357.49063Q495.09604 357.49063 494.3773 356.6Q493.53354 355.5375 493.53354 353.11563ZM494.61166 353.11563Q494.61166 355.225 495.11166 355.92813Q495.61166 356.63126 496.3304 356.63126Q497.0648 356.63126 497.54916 355.92813Q498.04916 355.225 498.04916 353.11563Q498.04916 350.99063 497.54916 350.30313Q497.0648 349.6 496.3148 349.6Q495.59604 349.6 495.15854 350.20938Q494.61166 350.99063 494.61166 353.11563Z" fill-rule="nonzero"/><path fill="#000000" d="M626.1794 356.33438L626.1794 357.35L620.4919 357.35Q620.4919 356.975 620.6169 356.61563Q620.83563 356.0375 621.3044 355.475Q621.78876 354.9125 622.695 354.17813Q624.10126 353.02188 624.58563 352.35Q625.08563 351.67813 625.08563 351.08438Q625.08563 350.45938 624.6325 350.0375Q624.1794 349.6 623.46063 349.6Q622.695 349.6 622.2419 350.05313Q621.78876 350.50626 621.77313 351.31876L620.695 351.20938Q620.8044 349.99063 621.52313 349.36563Q622.2575 348.725 623.4919 348.725Q624.72626 348.725 625.445 349.4125Q626.16376 350.1 626.16376 351.11563Q626.16376 351.63126 625.945 352.13126Q625.7419 352.61563 625.2419 353.17813Q624.7575 353.725 623.6325 354.67813Q622.6794 355.475 622.39813 355.77188Q622.1325 356.05313 621.96063 356.33438L626.1794 356.33438ZM627.6325 353.11563Q627.6325 351.58438 627.945 350.6625Q628.2575 349.725 628.8669 349.225Q629.4919 348.725 630.4294 348.725Q631.1169 348.725 631.6325 349.00626Q632.16376 349.2875 632.5075 349.81876Q632.85126 350.33438 633.03876 351.08438Q633.22626 351.83438 633.22626 353.11563Q633.22626 354.63126 632.91376 355.55313Q632.6169 356.475 631.9919 356.99063Q631.3825 357.49063 630.4294 357.49063Q629.195 357.49063 628.47626 356.6Q627.6325 355.5375 627.6325 353.11563ZM628.71063 353.11563Q628.71063 355.225 629.21063 355.92813Q629.71063 356.63126 630.4294 356.63126Q631.16376 356.63126 631.64813 355.92813Q632.14813 355.225 632.14813 353.11563Q632.14813 350.99063 631.64813 350.30313Q631.16376 349.6 630.41376 349.6Q629.695 349.6 629.2575 350.20938Q628.71063 350.99063 628.71063 353.11563ZM634.6325 353.11563Q634.6325 351.58438 634.945 350.6625Q635.2575 349.725 635.8669 349.225Q636.4919 348.725 637.4294 348.725Q638.1169 348.725 638.6325 349.00626Q639.16376 349.2875 639.5075 349.81876Q639.85126 350.33438 640.03876 351.08438Q640.22626 351.83438 640.22626 353.11563Q640.22626 354.63126 639.91376 355.55313Q639.6169 356.475 638.9919 356.99063Q638.3825 357.49063 637.4294 357.49063Q636.195 357.49063 635.47626 356.6Q634.6325 355.5375 634.6325 353.11563ZM635.71063 353.11563Q635.71063 355.225 636.21063 355.92813Q636.71063 356.63126 637.4294 356.63126Q638.16376 356.63126 638.64813 355.92813Q639.14813 355.225 639.14813 353.11563Q639.14813 350.99063 638.64813 350.30313Q638.16376 349.6 637.41376 349.6Q636.695 349.6 636.2575 350.20938Q635.71063 350.99063 635.71063 353.11563ZM641.6325 353.11563Q641.6325 351.58438 641.945 350.6625Q642.2575 349.725 642.8669 349.225Q643.4919 348.725 644.4294 348.725Q645.1169 348.725 645.6325 349.00626Q646.16376 349.2875 646.5075 349.81876Q646.85126 350.33438 647.03876 351.08438Q647.22626 351.83438 647.22626 353.11563Q647.22626 354.63126 646.91376 355.55313Q646.6169 356.475 645.9919 356.99063Q645.3825 357.49063 644.4294 357.49063Q643.195 357.49063 642.47626 356.6Q641.6325 355.5375 641.6325 353.11563ZM642.71063 353.11563Q642.71063 355.225 643.21063 355.92813Q643.71063 356.63126 644.4294 356.63126Q645.16376 356.63126 645.64813 355.92813Q646.14813 355.225 646.14813 353.11563Q646.14813 350.99063 645.64813 350.30313Q645.16376 349.6 644.41376 349.6Q643.695 349.6 643.2575 350.20938Q642.71063 350.99063 642.71063 353.11563Z" fill-rule="nonzero"/><path stroke="#4285f4" stroke-width="4.0" stroke-linecap="butt" d="M222.0 65.416664L234.0 65.416664" fill-rule="nonzero"/><path fill="#1a1a1a" d="M243.04688 69.416664L243.04688 64.010414L242.10938 64.010414L242.10938 63.197914L243.04688 63.197914L243.04688 62.52604Q243.04688 61.90104 243.15625 61.604164Q243.3125 61.18229 243.6875 60.93229Q244.07812 60.68229 244.76562 60.68229Q245.21875 60.68229 245.75 60.791664L245.59375 61.697914Q245.26562 61.65104 244.96875 61.65104Q244.48438 61.65104 244.28125 61.854164Q244.09375 62.05729 244.09375 62.61979L244.09375 63.197914L245.3125 63.197914L245.3125 64.010414L244.09375 64.010414L244.09375 69.416664L243.04688 69.416664ZM245.40625 66.30729Q245.40625 64.572914 246.35938 63.74479Q247.15625 63.05729 248.3125 63.05729Q249.59375 63.05729 250.40625 63.90104Q251.23438 64.729164 251.23438 66.21354Q251.23438 67.416664 250.875 68.104164Q250.51562 68.791664 249.8125 69.18229Q249.125 69.55729 248.3125 69.55729Q247.01562 69.55729 246.20312 68.729164Q245.40625 67.885414 245.40625 66.30729ZM246.48438 66.30729Q246.48438 67.49479 247.0 68.08854Q247.53125 68.68229 248.3125 68.68229Q249.10938 68.68229 249.625 68.08854Q250.14062 67.49479 250.14062 66.27604Q250.14062 65.11979 249.60938 64.52604Q249.09375 63.93229 248.3125 63.93229Q247.53125 63.93229 247.0 64.52604Q246.48438 65.104164 246.48438 66.30729ZM252.78125 69.416664L252.78125 63.197914L253.73438 63.197914L253.73438 64.135414Q254.09375 63.479164 254.39062 63.27604Q254.70312 63.05729 255.07812 63.05729Q255.60938 63.05729 256.15625 63.385414L255.79688 64.36979Q255.40625 64.135414 255.03125 64.135414Q254.67188 64.135414 254.39062 64.354164Q254.125 64.55729 254.01562 64.93229Q253.82812 65.49479 253.82812 66.15104L253.82812 69.416664L252.78125 69.416664ZM257.9375 69.416664L256.03125 63.197914L257.125 63.197914L258.10938 66.791664L258.48438 68.11979Q258.51562 68.02604 258.8125 66.83854L259.79688 63.197914L260.875 63.197914L261.8125 66.80729L262.125 67.99479L262.48438 66.791664L263.54688 63.197914L264.57812 63.197914L262.625 69.416664L261.53125 69.416664L260.54688 65.68229L260.29688 64.635414L259.04688 69.416664L257.9375 69.416664ZM269.85938 68.65104Q269.26562 69.15104 268.71875 69.354164Q268.1875 69.55729 267.5625 69.55729Q266.53125 69.55729 265.98438 69.05729Q265.4375 68.55729 265.4375 67.77604Q265.4375 67.322914 265.64062 66.947914Q265.84375 66.55729 266.1875 66.33854Q266.53125 66.104164 266.95312 65.99479Q267.25 65.90104 267.89062 65.822914Q269.15625 65.68229 269.76562 65.46354Q269.76562 65.24479 269.76562 65.197914Q269.76562 64.541664 269.46875 64.27604Q269.0625 63.93229 268.26562 63.93229Q267.53125 63.93229 267.17188 64.197914Q266.8125 64.447914 266.64062 65.104164L265.60938 64.96354Q265.75 64.30729 266.07812 63.90104Q266.40625 63.49479 267.01562 63.27604Q267.625 63.05729 268.42188 63.05729Q269.21875 63.05729 269.71875 63.24479Q270.21875 63.43229 270.45312 63.71354Q270.6875 63.99479 270.78125 64.43229Q270.82812 64.697914 270.82812 65.40104L270.82812 66.80729Q270.82812 68.27604 270.89062 68.666664Q270.96875 69.05729 271.17188 69.416664L270.0625 69.416664Q269.90625 69.08854 269.85938 68.65104ZM269.76562 66.291664Q269.1875 66.52604 268.04688 66.697914Q267.39062 66.791664 267.125 66.916664Q266.85938 67.02604 266.70312 67.24479Q266.5625 67.46354 266.5625 67.74479Q266.5625 68.166664 266.875 68.447914Q267.20312 68.729164 267.8125 68.729164Q268.42188 68.729164 268.89062 68.46354Q269.375 68.197914 269.59375 67.729164Q269.76562 67.36979 269.76562 66.68229L269.76562 66.291664ZM272.78125 69.416664L272.78125 63.197914L273.73438 63.197914L273.73438 64.135414Q274.09375 63.479164 274.39062 63.27604Q274.70312 63.05729 275.07812 63.05729Q275.60938 63.05729 276.15625 63.385414L275.79688 64.36979Q275.40625 64.135414 275.03125 64.135414Q274.67188 64.135414 274.39062 64.354164Q274.125 64.55729 274.01562 64.93229Q273.82812 65.49479 273.82812 66.15104L273.82812 69.416664L272.78125 69.416664ZM280.82812 69.416664L280.82812 68.635414Q280.23438 69.55729 279.09375 69.55729Q278.34375 69.55729 277.71875 69.15104Q277.09375 68.729164 276.75 67.99479Q276.40625 67.260414 276.40625 66.30729Q276.40625 65.385414 276.71875 64.61979Q277.03125 63.854164 277.65625 63.46354Q278.28125 63.05729 279.04688 63.05729Q279.60938 63.05729 280.04688 63.291664Q280.48438 63.52604 280.76562 63.90104L280.76562 60.822914L281.8125 60.822914L281.8125 69.416664L280.82812 69.416664ZM277.5 66.30729Q277.5 67.510414 278.0 68.104164Q278.5 68.68229 279.1875 68.68229Q279.875 68.68229 280.35938 68.11979Q280.84375 67.55729 280.84375 66.40104Q280.84375 65.11979 280.34375 64.52604Q279.85938 63.93229 279.14062 63.93229Q278.4375 63.93229 277.96875 64.510414Q277.5 65.072914 277.5 66.30729Z" fill-rule="nonzero"/><path stroke="#ea4335" stroke-width="4.0" stroke-linecap="butt" d="M299.0 65.416664L311.0 65.416664" fill-rule="nonzero"/><path fill="#1a1a1a" d="M320.04688 69.416664L320.04688 64.010414L319.10938 64.010414L319.10938 63.197914L320.04688 63.197914L320.04688 62.52604Q320.04688 61.90104 320.15625 61.604164Q320.3125 61.18229 320.6875 60.93229Q321.07812 60.68229 321.76562 60.68229Q322.21875 60.68229 322.75 60.791664L322.59375 61.697914Q322.26562 61.65104 321.96875 61.65104Q321.48438 61.65104 321.28125 61.854164Q321.09375 62.05729 321.09375 62.61979L321.09375 63.197914L322.3125 63.197914L322.3125 64.010414L321.09375 64.010414L321.09375 69.416664L320.04688 69.416664ZM322.40625 66.30729Q322.40625 64.572914 323.35938 63.74479Q324.15625 63.05729 325.3125 63.05729Q326.59375 63.05729 327.40625 63.90104Q328.23438 64.729164 328.23438 66.21354Q328.23438 67.416664 327.875 68.104164Q327.51562 68.791664 326.8125 69.18229Q326.125 69.55729 325.3125 69.55729Q324.01562 69.55729 323.20312 68.729164Q322.40625 67.885414 322.40625 66.30729ZM323.48438 66.30729Q323.48438 67.49479 324.0 68.08854Q324.53125 68.68229 325.3125 68.68229Q326.10938 68.68229 326.625 68.08854Q327.14062 67.49479 327.14062 66.27604Q327.14062 65.11979 326.60938 64.52604Q326.09375 63.93229 325.3125 63.93229Q324.53125 63.93229 324.0 64.52604Q323.48438 65.104164 323.48438 66.30729ZM330.9375 69.416664L329.03125 63.197914L330.125 63.197914L331.10938 66.791664L331.48438 68.11979Q331.51562 68.02604 331.8125 66.83854L332.79688 63.197914L333.875 63.197914L334.8125 66.80729L335.125 67.99479L335.48438 66.791664L336.54688 63.197914L337.57812 63.197914L335.625 69.416664L334.53125 69.416664L333.54688 65.68229L333.29688 64.635414L332.04688 69.416664L330.9375 69.416664ZM342.85938 68.65104Q342.26562 69.15104 341.71875 69.354164Q341.1875 69.55729 340.5625 69.55729Q339.53125 69.55729 338.98438 69.05729Q338.4375 68.55729 338.4375 67.77604Q338.4375 67.322914 338.64062 66.947914Q338.84375 66.55729 339.1875 66.33854Q339.53125 66.104164 339.95312 65.99479Q340.25 65.90104 340.89062 65.822914Q342.15625 65.68229 342.76562 65.46354Q342.76562 65.24479 342.76562 65.197914Q342.76562 64.541664 342.46875 64.27604Q342.0625 63.93229 341.26562 63.93229Q340.53125 63.93229 340.17188 64.197914Q339.8125 64.447914 339.64062 65.104164L338.60938 64.96354Q338.75 64.30729 339.07812 63.90104Q339.40625 63.49479 340.01562 63.27604Q340.625 63.05729 341.42188 63.05729Q342.21875 63.05729 342.71875 63.24479Q343.21875 63.43229 343.45312 63.71354Q343.6875 63.99479 343.78125 64.43229Q343.82812 64.697914 343.82812 65.40104L343.82812 66.80729Q343.82812 68.27604 343.89062 68.666664Q343.96875 69.05729 344.17188 69.416664L343.0625 69.416664Q342.90625 69.08854 342.85938 68.65104ZM342.76562 66.291664Q342.1875 66.52604 341.04688 66.697914Q340.39062 66.791664 340.125 66.916664Q339.85938 67.02604 339.70312 67.24479Q339.5625 67.46354 339.5625 67.74479Q339.5625 68.166664 339.875 68.447914Q340.20312 68.729164 340.8125 68.729164Q341.42188 68.729164 341.89062 68.46354Q342.375 68.197914 342.59375 67.729164Q342.76562 67.36979 342.76562 66.68229L342.76562 66.291664ZM345.78125 69.416664L345.78125 63.197914L346.73438 63.197914L346.73438 64.135414Q347.09375 63.479164 347.39062 63.27604Q347.70312 63.05729 348.07812 63.05729Q348.60938 63.05729 349.15625 63.385414L348.79688 64.36979Q348.40625 64.135414 348.03125 64.135414Q347.67188 64.135414 347.39062 64.354164Q347.125 64.55729 347.01562 64.93229Q346.82812 65.49479 346.82812 66.15104L346.82812 69.416664L345.78125 69.416664ZM353.82812 69.416664L353.82812 68.635414Q353.23438 69.55729 352.09375 69.55729Q351.34375 69.55729 350.71875 69.15104Q350.09375 68.729164 349.75 67.99479Q349.40625 67.260414 349.40625 66.30729Q349.40625 65.385414 349.71875 64.61979Q350.03125 63.854164 350.65625 63.46354Q351.28125 63.05729 352.04688 63.05729Q352.60938 63.05729 353.04688 63.291664Q353.48438 63.52604 353.76562 63.90104L353.76562 60.822914L354.8125 60.822914L354.8125 69.416664L353.82812 69.416664ZM350.5 66.30729Q350.5 67.510414 351.0 68.104164Q351.5 68.68229 352.1875 68.68229Q352.875 68.68229 353.35938 68.11979Q353.84375 67.55729 353.84375 66.40104Q353.84375 65.11979 353.34375 64.52604Q352.85938 63.93229 352.14062 63.93229Q351.4375 63.93229 350.96875 64.510414Q350.5 65.072914 350.5 66.30729ZM359.0 68.02604L359.0 65.666664L356.67188 65.666664L356.67188 64.68229L359.0 64.68229L359.0 62.354164L360.0 62.354164L360.0 64.68229L362.34375 64.68229L362.34375 65.666664L360.0 65.666664L360.0 68.02604L359.0 68.02604Z" fill-rule="nonzero"/><path stroke="#fbbc04" stroke-width="4.0" stroke-linecap="butt" d="M379.0 65.416664L391.0 65.416664" fill-rule="nonzero"/><path fill="#1a1a1a" d="M399.92188 69.416664L399.92188 60.822914L402.89062 60.822914Q403.89062 60.822914 404.42188 60.947914Q405.15625 61.11979 405.67188 61.55729Q406.35938 62.135414 406.6875 63.041664Q407.03125 63.93229 407.03125 65.072914Q407.03125 66.05729 406.79688 66.80729Q406.57812 67.55729 406.21875 68.05729Q405.85938 68.55729 405.42188 68.83854Q405.0 69.11979 404.40625 69.27604Q403.8125 69.416664 403.03125 69.416664L399.92188 69.416664ZM401.0625 68.40104L402.89062 68.40104Q403.75 68.40104 404.23438 68.24479Q404.71875 68.08854 405.0 67.791664Q405.40625 67.40104 405.625 66.71354Q405.85938 66.02604 405.85938 65.05729Q405.85938 63.71354 405.40625 62.99479Q404.96875 62.260414 404.34375 62.010414Q403.875 61.83854 402.875 61.83854L401.0625 61.83854L401.0625 68.40104ZM413.04688 67.416664L414.14062 67.541664Q413.89062 68.49479 413.1875 69.02604Q412.48438 69.55729 411.40625 69.55729Q410.04688 69.55729 409.23438 68.71354Q408.4375 67.86979 408.4375 66.354164Q408.4375 64.791664 409.25 63.93229Q410.0625 63.05729 411.34375 63.05729Q412.59375 63.05729 413.375 63.90104Q414.17188 64.74479 414.17188 66.291664Q414.17188 66.385414 414.17188 66.572914L409.53125 66.572914Q409.59375 67.604164 410.10938 68.15104Q410.625 68.68229 411.40625 68.68229Q411.98438 68.68229 412.39062 68.385414Q412.8125 68.072914 413.04688 67.416664ZM409.59375 65.71354L413.0625 65.71354Q413.0 64.916664 412.67188 64.52604Q412.15625 63.916664 411.35938 63.916664Q410.625 63.916664 410.125 64.40104Q409.64062 64.885414 409.59375 65.71354ZM416.04688 69.416664L416.04688 64.010414L415.10938 64.010414L415.10938 63.197914L416.04688 63.197914L416.04688 62.52604Q416.04688 61.90104 416.15625 61.604164Q416.3125 61.18229 416.6875 60.93229Q417.07812 60.68229 417.76562 60.68229Q418.21875 60.68229 418.75 60.791664L418.59375 61.697914Q418.26562 61.65104 417.96875 61.65104Q417.48438 61.65104 417.28125 61.854164Q417.09375 62.05729 417.09375 62.61979L417.09375 63.197914L418.3125 63.197914L418.3125 64.010414L417.09375 64.010414L417.09375 69.416664L416.04688 69.416664ZM423.04688 67.416664L424.14062 67.541664Q423.89062 68.49479 423.1875 69.02604Q422.48438 69.55729 421.40625 69.55729Q420.04688 69.55729 419.23438 68.71354Q418.4375 67.86979 418.4375 66.354164Q418.4375 64.791664 419.25 63.93229Q420.0625 63.05729 421.34375 63.05729Q422.59375 63.05729 423.375 63.90104Q424.17188 64.74479 424.17188 66.291664Q424.17188 66.385414 424.17188 66.572914L419.53125 66.572914Q419.59375 67.604164 420.10938 68.15104Q420.625 68.68229 421.40625 68.68229Q421.98438 68.68229 422.39062 68.385414Q422.8125 68.072914 423.04688 67.416664ZM419.59375 65.71354L423.0625 65.71354Q423.0 64.916664 422.67188 64.52604Q422.15625 63.916664 421.35938 63.916664Q420.625 63.916664 420.125 64.40104Q419.64062 64.885414 419.59375 65.71354ZM425.78125 69.416664L425.78125 63.197914L426.73438 63.197914L426.73438 64.135414Q427.09375 63.479164 427.39062 63.27604Q427.70312 63.05729 428.07812 63.05729Q428.60938 63.05729 429.15625 63.385414L428.79688 64.36979Q428.40625 64.135414 428.03125 64.135414Q427.67188 64.135414 427.39062 64.354164Q427.125 64.55729 427.01562 64.93229Q426.82812 65.49479 426.82812 66.15104L426.82812 69.416664L425.78125 69.416664ZM429.78125 69.416664L429.78125 63.197914L430.73438 63.197914L430.73438 64.135414Q431.09375 63.479164 431.39062 63.27604Q431.70312 63.05729 432.07812 63.05729Q432.60938 63.05729 433.15625 63.385414L432.79688 64.36979Q432.40625 64.135414 432.03125 64.135414Q431.67188 64.135414 431.39062 64.354164Q431.125 64.55729 431.01562 64.93229Q430.82812 65.49479 430.82812 66.15104L430.82812 69.416664L429.78125 69.416664ZM438.04688 67.416664L439.14062 67.541664Q438.89062 68.49479 438.1875 69.02604Q437.48438 69.55729 436.40625 69.55729Q435.04688 69.55729 434.23438 68.71354Q433.4375 67.86979 433.4375 66.354164Q433.4375 64.791664 434.25 63.93229Q435.0625 63.05729 436.34375 63.05729Q437.59375 63.05729 438.375 63.90104Q439.17188 64.74479 439.17188 66.291664Q439.17188 66.385414 439.17188 66.572914L434.53125 66.572914Q434.59375 67.604164 435.10938 68.15104Q435.625 68.68229 436.40625 68.68229Q436.98438 68.68229 437.39062 68.385414Q437.8125 68.072914 438.04688 67.416664ZM434.59375 65.71354L438.0625 65.71354Q438.0 64.916664 437.67188 64.52604Q437.15625 63.916664 436.35938 63.916664Q435.625 63.916664 435.125 64.40104Q434.64062 64.885414 434.59375 65.71354ZM444.82812 69.416664L444.82812 68.635414Q444.23438 69.55729 443.09375 69.55729Q442.34375 69.55729 441.71875 69.15104Q441.09375 68.729164 440.75 67.99479Q440.40625 67.260414 440.40625 66.30729Q440.40625 65.385414 440.71875 64.61979Q441.03125 63.854164 441.65625 63.46354Q442.28125 63.05729 443.04688 63.05729Q443.60938 63.05729 444.04688 63.291664Q444.48438 63.52604 444.76562 63.90104L444.76562 60.822914L445.8125 60.822914L445.8125 69.416664L444.82812 69.416664ZM441.5 66.30729Q441.5 67.510414 442.0 68.104164Q442.5 68.68229 443.1875 68.68229Q443.875 68.68229 444.35938 68.11979Q444.84375 67.55729 444.84375 66.40104Q444.84375 65.11979 444.34375 64.52604Q443.85938 63.93229 443.14062 63.93229Q442.4375 63.93229 441.96875 64.510414Q441.5 65.072914 441.5 66.30729Z" fill-rule="nonzero"/><path fill="#757575" d="M248.64062 39.65L248.64062 25.337502L258.29688 25.337502L258.29688 27.025002L250.53125 27.025002L250.53125 31.462502L257.25 31.462502L257.25 33.15L250.53125 33.15L250.53125 39.65L248.64062 39.65ZM260.54688 39.65L260.54688 25.337502L265.9375 25.337502Q267.375 25.337502 268.125 25.462502Q269.17188 25.650002 269.89062 26.150002Q270.60938 26.634377 271.03125 27.525002Q271.46875 28.415627 271.46875 29.478127Q271.46875 31.306252 270.29688 32.571877Q269.14062 33.821877 266.10938 33.821877L262.4375 33.821877L262.4375 39.65L260.54688 39.65ZM262.4375 32.134377L266.14062 32.134377Q267.96875 32.134377 268.73438 31.462502Q269.51562 30.775002 269.51562 29.525002Q269.51562 28.634377 269.0625 27.993752Q268.60938 27.353127 267.875 27.150002Q267.39062 27.025002 266.09375 27.025002L262.4375 27.025002L262.4375 32.134377ZM272.90625 35.05625L274.6875 34.9Q274.8125 35.9625 275.26562 36.65Q275.73438 37.3375 276.70312 37.775Q277.6875 38.196877 278.92188 38.196877Q280.0 38.196877 280.82812 37.884377Q281.65625 37.55625 282.0625 36.99375Q282.46875 36.43125 282.46875 35.759377Q282.46875 35.0875 282.07812 34.5875Q281.6875 34.0875 280.79688 33.74375Q280.21875 33.509377 278.23438 33.040627Q276.26562 32.571877 275.48438 32.15Q274.45312 31.618752 273.95312 30.821877Q273.45312 30.025002 273.45312 29.040627Q273.45312 27.946877 274.0625 27.009377Q274.67188 26.071877 275.85938 25.587502Q277.04688 25.087502 278.48438 25.087502Q280.07812 25.087502 281.29688 25.603127Q282.51562 26.118752 283.15625 27.118752Q283.8125 28.103127 283.85938 29.368752L282.04688 29.509377Q281.90625 28.150002 281.0625 27.462502Q280.21875 26.759377 278.5625 26.759377Q276.84375 26.759377 276.04688 27.400002Q275.26562 28.025002 275.26562 28.900002Q275.26562 29.681252 275.82812 30.181252Q276.375 30.681252 278.6875 31.196877Q281.0 31.712502 281.85938 32.103127Q283.10938 32.68125 283.70312 33.571877Q284.29688 34.446877 284.29688 35.603127Q284.29688 36.74375 283.64062 37.759377Q282.98438 38.775 281.75 39.3375Q280.53125 39.9 279.0 39.9Q277.0625 39.9 275.75 39.3375Q274.4375 38.759377 273.6875 37.61875Q272.9375 36.478127 272.90625 35.05625ZM294.23438 39.65L291.0625 29.275002L292.875 29.275002L294.53125 35.259377L295.14062 37.49375Q295.1875 37.321877 295.67188 35.353127L297.32812 29.275002L299.14062 29.275002L300.6875 35.290627L301.20312 37.275L301.79688 35.275L303.57812 29.275002L305.28125 29.275002L302.04688 39.65L300.21875 39.65L298.5625 33.43125L298.17188 31.665627L296.0625 39.65L294.23438 39.65ZM306.8125 39.65L306.8125 37.65L308.8125 37.65L308.8125 39.65L306.8125 39.65ZM312.29688 39.65L312.29688 29.275002L313.875 29.275002L313.875 30.853127Q314.48438 29.743752 315.0 29.400002Q315.51562 29.040627 316.125 29.040627Q317.01562 29.040627 317.9375 29.603127L317.32812 31.243752Q316.6875 30.853127 316.04688 30.853127Q315.46875 30.853127 315.0 31.212502Q314.54688 31.556252 314.34375 32.165627Q314.0625 33.103127 314.0625 34.2125L314.0625 39.65L312.29688 39.65ZM319.8125 39.65L319.8125 37.65L321.8125 37.65L321.8125 39.65L319.8125 39.65ZM329.15625 38.071877L329.40625 39.634377Q328.67188 39.790627 328.07812 39.790627Q327.125 39.790627 326.59375 39.49375Q326.07812 39.18125 325.85938 38.696877Q325.64062 38.196877 325.64062 36.61875L325.64062 30.650002L324.35938 30.650002L324.35938 29.275002L325.64062 29.275002L325.64062 26.712502L327.39062 25.650002L327.39062 29.275002L329.15625 29.275002L329.15625 30.650002L327.39062 30.650002L327.39062 36.7125Q327.39062 37.4625 327.48438 37.68125Q327.57812 37.884377 327.78125 38.025Q328.0 38.15 328.39062 38.15Q328.67188 38.15 329.15625 38.071877ZM337.0 39.9L337.85938 35.728127L336.20312 35.728127L336.20312 34.275L338.15625 34.275L338.875 30.728127L336.20312 30.728127L336.20312 29.275002L339.17188 29.275002L340.01562 25.087502L341.48438 25.087502L340.625 29.275002L343.70312 29.275002L344.5625 25.087502L346.03125 25.087502L345.1875 29.275002L346.875 29.275002L346.875 30.728127L344.89062 30.728127L344.15625 34.275L346.875 34.275L346.875 35.728127L343.85938 35.728127L343.01562 39.9L341.54688 39.9L342.39062 35.728127L339.32812 35.728127L338.46875 39.9L337.0 39.9ZM339.60938 34.275L342.6875 34.275L343.40625 30.728127L340.34375 30.728127L339.60938 34.275ZM353.67188 34.4625Q353.67188 31.587502 355.26562 30.196877Q356.60938 29.040627 358.53125 29.040627Q360.67188 29.040627 362.01562 30.446877Q363.375 31.853127 363.375 34.321877Q363.375 36.321877 362.78125 37.478127Q362.1875 38.61875 361.03125 39.259377Q359.89062 39.884377 358.53125 39.884377Q356.34375 39.884377 355.0 38.49375Q353.67188 37.0875 353.67188 34.4625ZM355.46875 34.4625Q355.46875 36.4625 356.32812 37.446877Q357.20312 38.43125 358.53125 38.43125Q359.84375 38.43125 360.70312 37.446877Q361.57812 36.446877 361.57812 34.4Q361.57812 32.478127 360.70312 31.493752Q359.82812 30.493752 358.53125 30.493752Q357.20312 30.493752 356.32812 31.493752Q355.46875 32.478127 355.46875 34.4625ZM365.73438 39.65L365.73438 30.650002L364.1875 30.650002L364.1875 29.275002L365.73438 29.275002L365.73438 28.181252Q365.73438 27.134377 365.92188 26.618752Q366.17188 25.931252 366.8125 25.509377Q367.45312 25.087502 368.60938 25.087502Q369.35938 25.087502 370.25 25.259377L369.98438 26.790627Q369.4375 26.696877 368.95312 26.696877Q368.15625 26.696877 367.8125 27.040627Q367.48438 27.384377 367.48438 28.321877L367.48438 29.275002L369.51562 29.275002L369.51562 30.650002L367.48438 30.650002L367.48438 39.65L365.73438 39.65ZM377.28125 39.65L377.28125 25.337502L379.03125 25.337502L379.03125 39.65L377.28125 39.65ZM381.32812 27.353127L381.32812 25.337502L383.09375 25.337502L383.09375 27.353127L381.32812 27.353127ZM381.32812 39.65L381.32812 29.275002L383.09375 29.275002L383.09375 39.65L381.32812 39.65ZM385.0 40.509377L386.70312 40.759377Q386.8125 41.55625 387.29688 41.915627Q387.95312 42.4 389.09375 42.4Q390.3125 42.4 390.96875 41.915627Q391.64062 41.43125 391.875 40.55625Q392.01562 40.009377 392.0 38.290627Q390.84375 39.65 389.125 39.65Q386.98438 39.65 385.8125 38.103127Q384.64062 36.55625 384.64062 34.4Q384.64062 32.915627 385.17188 31.665627Q385.71875 30.415627 386.73438 29.728127Q387.76562 29.040627 389.14062 29.040627Q390.96875 29.040627 392.17188 30.525002L392.17188 29.275002L393.78125 29.275002L393.78125 38.24375Q393.78125 40.665627 393.28125 41.665627Q392.79688 42.68125 391.71875 43.259377Q390.65625 43.853127 389.09375 43.853127Q387.25 43.853127 386.09375 43.025Q384.95312 42.196877 385.0 40.509377ZM386.45312 34.275Q386.45312 36.321877 387.26562 37.259377Q388.07812 38.196877 389.29688 38.196877Q390.5 38.196877 391.3125 37.259377Q392.14062 36.321877 392.14062 34.3375Q392.14062 32.43125 391.29688 31.462502Q390.45312 30.493752 389.26562 30.493752Q388.09375 30.493752 387.26562 31.446877Q386.45312 32.4 386.45312 34.275ZM396.3125 39.65L396.3125 25.337502L398.07812 25.337502L398.07812 30.462502Q399.3125 29.040627 401.1875 29.040627Q402.32812 29.040627 403.17188 29.493752Q404.03125 29.946877 404.39062 30.759377Q404.76562 31.556252 404.76562 33.071877L404.76562 39.65L403.01562 39.65L403.01562 33.071877Q403.01562 31.759377 402.4375 31.165627Q401.85938 30.556252 400.82812 30.556252Q400.04688 30.556252 399.34375 30.962502Q398.65625 31.368752 398.35938 32.071877Q398.07812 32.759377 398.07812 33.978127L398.07812 39.65L396.3125 39.65ZM411.15625 38.071877L411.40625 39.634377Q410.67188 39.790627 410.07812 39.790627Q409.125 39.790627 408.59375 39.49375Q408.07812 39.18125 407.85938 38.696877Q407.64062 38.196877 407.64062 36.61875L407.64062 30.650002L406.35938 30.650002L406.35938 29.275002L407.64062 29.275002L407.64062 26.712502L409.39062 25.650002L409.39062 29.275002L411.15625 29.275002L411.15625 30.650002L409.39062 30.650002L409.39062 36.7125Q409.39062 37.4625 409.48438 37.68125Q409.57812 37.884377 409.78125 38.025Q410.0 38.15 410.39062 38.15Q410.67188 38.15 411.15625 38.071877ZM412.60938 36.55625L414.35938 36.275Q414.5 37.321877 415.17188 37.884377Q415.84375 38.43125 417.04688 38.43125Q418.25 38.43125 418.82812 37.946877Q419.42188 37.446877 419.42188 36.790627Q419.42188 36.196877 418.90625 35.853127Q418.54688 35.61875 417.10938 35.259377Q415.17188 34.759377 414.42188 34.415627Q413.6875 34.05625 413.29688 33.43125Q412.90625 32.790627 412.90625 32.025Q412.90625 31.337502 413.21875 30.743752Q413.54688 30.150002 414.09375 29.759377Q414.5 29.462502 415.20312 29.259377Q415.92188 29.040627 416.73438 29.040627Q417.95312 29.040627 418.875 29.400002Q419.79688 29.743752 420.23438 30.353127Q420.67188 30.946877 420.84375 31.946877L419.125 32.18125Q419.0 31.384377 418.4375 30.946877Q417.875 30.493752 416.85938 30.493752Q415.64062 30.493752 415.125 30.900002Q414.60938 31.290627 414.60938 31.821877Q414.60938 32.165627 414.82812 32.446877Q415.03125 32.728127 415.5 32.915627Q415.76562 33.009377 417.04688 33.353127Q418.92188 33.853127 419.65625 34.18125Q420.39062 34.49375 420.8125 35.103127Q421.23438 35.696877 421.23438 36.603127Q421.23438 37.478127 420.71875 38.259377Q420.20312 39.040627 419.23438 39.4625Q418.26562 39.884377 417.04688 39.884377Q415.03125 39.884377 413.96875 39.040627Q412.90625 38.196877 412.60938 36.55625Z" fill-rule="nonzero"/></svg>